<?xml version="1.0" encoding="UTF-8" standalone="no"?>
<!-- Created with Inkscape (http://www.inkscape.org/) -->

<svg
   xmlns:dc="http://purl.org/dc/elements/1.1/"
   xmlns:cc="http://creativecommons.org/ns#"
   xmlns:rdf="http://www.w3.org/1999/02/22-rdf-syntax-ns#"
   xmlns:svg="http://www.w3.org/2000/svg"
   xmlns="http://www.w3.org/2000/svg"
   xmlns:sodipodi="http://sodipodi.sourceforge.net/DTD/sodipodi-0.dtd"
   xmlns:inkscape="http://www.inkscape.org/namespaces/inkscape"
   width="999.99994"
   height="497.84772"
   id="svg3637"
   version="1.1"
   inkscape:version="0.48.2 r9819"
   sodipodi:docname="C INN.svg">
  <defs
     id="defs3639">
    <clipPath
       id="clipPath4051"
       clipPathUnits="userSpaceOnUse">
      <path
         id="path4053"
         d="m 0,842.04 594.96,0 L 594.96,0 0,0 0,842.04 z"
         inkscape:connector-curvature="0" />
    </clipPath>
    <clipPath
       id="clipPath4045"
       clipPathUnits="userSpaceOnUse">
      <path
         id="path4047"
         d="m 0,842 595.276,0 0,-841.89 L 0,0.11 0,842 z"
         inkscape:connector-curvature="0" />
    </clipPath>
    <clipPath
       id="clipPath4033"
       clipPathUnits="userSpaceOnUse">
      <path
         id="path4035"
         d="m 0,842.04 594.96,0 L 594.96,0 0,0 0,842.04 z"
         inkscape:connector-curvature="0" />
    </clipPath>
    <clipPath
       id="clipPath4027"
       clipPathUnits="userSpaceOnUse">
      <path
         id="path4029"
         d="m 0,842 595.276,0 0,-841.89 L 0,0.11 0,842 z"
         inkscape:connector-curvature="0" />
    </clipPath>
    <clipPath
       id="clipPath4021"
       clipPathUnits="userSpaceOnUse">
      <path
         id="path4023"
         clip-rule="evenodd"
         d="m 533.661,118.68 c 0,-30.084 -24.417,-54.5 -54.501,-54.5 -30.084,0 -54.5,24.416 -54.5,54.5 0,30.084 24.416,54.5 54.5,54.5 30.084,0 54.501,-24.416 54.501,-54.5 z"
         inkscape:connector-curvature="0" />
    </clipPath>
    <clipPath
       id="clipPath4009"
       clipPathUnits="userSpaceOnUse">
      <path
         id="path4011"
         d="m 0,842.04 594.96,0 L 594.96,0 0,0 0,842.04 z"
         inkscape:connector-curvature="0" />
    </clipPath>
    <clipPath
       id="clipPath4003"
       clipPathUnits="userSpaceOnUse">
      <path
         id="path4005"
         d="m 0,842 595.276,0 0,-841.89 L 0,0.11 0,842 z"
         inkscape:connector-curvature="0" />
    </clipPath>
    <clipPath
       id="clipPath3997"
       clipPathUnits="userSpaceOnUse">
      <path
         id="path3999"
         clip-rule="evenodd"
         d="m 532.661,118.68 c 0,-29.532 -23.969,-53.5 -53.501,-53.5 -29.532,0 -53.501,23.968 -53.501,53.5 0,29.532 23.969,53.5 53.501,53.5 29.532,0 53.501,-23.968 53.501,-53.5 z"
         inkscape:connector-curvature="0" />
    </clipPath>
    <clipPath
       id="clipPath3985"
       clipPathUnits="userSpaceOnUse">
      <path
         id="path3987"
         d="m 0,842.04 594.96,0 L 594.96,0 0,0 0,842.04 z"
         inkscape:connector-curvature="0" />
    </clipPath>
    <clipPath
       id="clipPath3979"
       clipPathUnits="userSpaceOnUse">
      <path
         id="path3981"
         d="m 0,842 595.276,0 0,-841.89 L 0,0.11 0,842 z"
         inkscape:connector-curvature="0" />
    </clipPath>
    <clipPath
       id="clipPath3973"
       clipPathUnits="userSpaceOnUse">
      <path
         id="path3975"
         clip-rule="evenodd"
         d="m 533.661,242.22 c 0,-30.084 -24.417,-54.501 -54.501,-54.501 -30.084,0 -54.5,24.417 -54.5,54.501 0,30.084 24.416,54.501 54.5,54.501 30.084,0 54.501,-24.417 54.501,-54.501 z"
         inkscape:connector-curvature="0" />
    </clipPath>
    <clipPath
       id="clipPath3961"
       clipPathUnits="userSpaceOnUse">
      <path
         id="path3963"
         d="m 0,842.04 594.96,0 L 594.96,0 0,0 0,842.04 z"
         inkscape:connector-curvature="0" />
    </clipPath>
    <clipPath
       id="clipPath3955"
       clipPathUnits="userSpaceOnUse">
      <path
         id="path3957"
         d="m 0,842 595.276,0 0,-841.89 L 0,0.11 0,842 z"
         inkscape:connector-curvature="0" />
    </clipPath>
    <clipPath
       id="clipPath3949"
       clipPathUnits="userSpaceOnUse">
      <path
         id="path3951"
         clip-rule="evenodd"
         d="m 532.661,242.22 c 0,-29.532 -23.969,-53.501 -53.501,-53.501 -29.532,0 -53.501,23.969 -53.501,53.501 0,29.532 23.969,53.501 53.501,53.501 29.532,0 53.501,-23.969 53.501,-53.501 z"
         inkscape:connector-curvature="0" />
    </clipPath>
    <clipPath
       id="clipPath3937"
       clipPathUnits="userSpaceOnUse">
      <path
         id="path3939"
         d="m 0,842.04 594.96,0 L 594.96,0 0,0 0,842.04 z"
         inkscape:connector-curvature="0" />
    </clipPath>
    <clipPath
       id="clipPath3931"
       clipPathUnits="userSpaceOnUse">
      <path
         id="path3933"
         d="m 0,842 595.276,0 0,-841.89 L 0,0.11 0,842 z"
         inkscape:connector-curvature="0" />
    </clipPath>
    <clipPath
       id="clipPath3925"
       clipPathUnits="userSpaceOnUse">
      <path
         id="path3927"
         clip-rule="evenodd"
         d="m 533.661,366.42 c 0,-30.084 -24.417,-54.5 -54.501,-54.5 -30.084,0 -54.5,24.416 -54.5,54.5 0,30.084 24.416,54.501 54.5,54.501 30.084,0 54.501,-24.417 54.501,-54.501 z"
         inkscape:connector-curvature="0" />
    </clipPath>
    <clipPath
       id="clipPath3913"
       clipPathUnits="userSpaceOnUse">
      <path
         id="path3915"
         d="m 0,842.04 594.96,0 L 594.96,0 0,0 0,842.04 z"
         inkscape:connector-curvature="0" />
    </clipPath>
    <clipPath
       id="clipPath3907"
       clipPathUnits="userSpaceOnUse">
      <path
         id="path3909"
         d="m 0,842 595.276,0 0,-841.89 L 0,0.11 0,842 z"
         inkscape:connector-curvature="0" />
    </clipPath>
    <clipPath
       id="clipPath3901"
       clipPathUnits="userSpaceOnUse">
      <path
         id="path3903"
         clip-rule="evenodd"
         d="m 532.661,366.42 c 0,-29.532 -23.969,-53.5 -53.501,-53.5 -29.532,0 -53.501,23.968 -53.501,53.5 0,29.532 23.969,53.501 53.501,53.501 29.532,0 53.501,-23.969 53.501,-53.501 z"
         inkscape:connector-curvature="0" />
    </clipPath>
    <clipPath
       id="clipPath3889"
       clipPathUnits="userSpaceOnUse">
      <path
         id="path3891"
         d="m 0,842.04 594.96,0 L 594.96,0 0,0 0,842.04 z"
         inkscape:connector-curvature="0" />
    </clipPath>
    <clipPath
       id="clipPath3883"
       clipPathUnits="userSpaceOnUse">
      <path
         id="path3885"
         d="m 0,842 595.276,0 0,-841.89 L 0,0.11 0,842 z"
         inkscape:connector-curvature="0" />
    </clipPath>
    <clipPath
       id="clipPath3877"
       clipPathUnits="userSpaceOnUse">
      <path
         id="path3879"
         clip-rule="evenodd"
         d="m 533.725,684.84 c 0,-42.242 -34.283,-76.526 -76.525,-76.526 -42.242,0 -76.525,34.284 -76.525,76.526 0,42.242 34.283,76.526 76.525,76.526 42.242,0 76.525,-34.284 76.525,-76.526 z"
         inkscape:connector-curvature="0" />
    </clipPath>
    <clipPath
       id="clipPath3793"
       clipPathUnits="userSpaceOnUse">
      <path
         id="path3795"
         d="m 212.935,783.406 -155.767,0 0,-48.251 155.767,0 0,48.251 z"
         inkscape:connector-curvature="0" />
    </clipPath>
    <clipPath
       id="clipPath3773"
       clipPathUnits="userSpaceOnUse">
      <path
         id="path3775"
         d="m 212.935,783.406 -155.767,0 0,-48.251 155.767,0 0,48.251 z"
         inkscape:connector-curvature="0" />
    </clipPath>
    <clipPath
       id="clipPath3717"
       clipPathUnits="userSpaceOnUse">
      <path
         id="path3719"
         d="m 0,842.04 594.96,0 L 594.96,0 0,0 0,842.04 z"
         inkscape:connector-curvature="0" />
    </clipPath>
    <clipPath
       id="clipPath3711"
       clipPathUnits="userSpaceOnUse">
      <path
         id="path3713"
         d="m 0,842 595.276,0 0,-841.89 L 0,0.11 0,842 z"
         inkscape:connector-curvature="0" />
    </clipPath>
    <clipPath
       id="clipPath3681"
       clipPathUnits="userSpaceOnUse">
      <path
         id="path3683"
         d="m 0,842.04 594.96,0 L 594.96,0 0,0 0,842.04 z"
         inkscape:connector-curvature="0" />
    </clipPath>
    <clipPath
       id="clipPath3675"
       clipPathUnits="userSpaceOnUse">
      <path
         id="path3677"
         d="m 0,842 595.276,0 0,-841.89 L 0,0.11 0,842 z"
         inkscape:connector-curvature="0" />
    </clipPath>
    <clipPath
       id="clipPath3669"
       clipPathUnits="userSpaceOnUse">
      <path
         id="path3671"
         clip-rule="evenodd"
         d="m 14.173,827.827 566.884,0 0,-813.424 -566.884,0 0,813.424 z"
         inkscape:connector-curvature="0" />
    </clipPath>
    <clipPath
       id="clipPath3663"
       clipPathUnits="userSpaceOnUse">
      <path
         id="path3665"
         d="m 582.786,807.434 -569.613,0 0,-796.66 569.613,0 0,796.66 z"
         inkscape:connector-curvature="0" />
    </clipPath>
    <clipPath
       id="clipPath4356"
       clipPathUnits="userSpaceOnUse">
      <path
         id="path4358"
         clip-rule="evenodd"
         d="m 31.6596,501.7323 512.64,0 0,-283.4646 -512.64,0 0,283.4646 z"
         inkscape:connector-curvature="0" />
    </clipPath>
    <clipPath
       id="clipPath4933"
       clipPathUnits="userSpaceOnUse">
      <path
         id="path4935"
         d="m 191.32,596.797 0,-114.284 125.68,0 0,2.514 c 0,79.313 -44.799,111.77 -104.227,111.77 l 0,0 -21.453,0 z"
         inkscape:connector-curvature="0" />
    </clipPath>
    <clipPath
       id="clipPath4915"
       clipPathUnits="userSpaceOnUse">
      <path
         id="path4917"
         d="m -0.999985,597.796 193.319985,0 0,-116.283 -193.319985,0 0,116.283 z"
         inkscape:connector-curvature="0" />
    </clipPath>
    <clipPath
       id="clipPath4907"
       clipPathUnits="userSpaceOnUse">
      <path
         id="path4909"
         d="M 0,0 612,0 612,792 0,792 0,0 z"
         inkscape:connector-curvature="0" />
    </clipPath>
    <clipPath
       id="clipPath4895"
       clipPathUnits="userSpaceOnUse">
      <path
         id="path4897"
         d="m 0,482.593 191.32,0 0,114.204 -191.32,0 0,-114.204 z"
         inkscape:connector-curvature="0" />
    </clipPath>
    <clipPath
       id="clipPath4583"
       clipPathUnits="userSpaceOnUse">
      <path
         id="path4585"
         d="m 110.42,21.237 63.166,0 0,31.415 -63.166,0 0,-31.415 z"
         inkscape:connector-curvature="0" />
    </clipPath>
  </defs>
  <sodipodi:namedview
     id="base"
     pagecolor="#ffffff"
     bordercolor="#666666"
     borderopacity="1.0"
     inkscape:pageopacity="0.0"
     inkscape:pageshadow="2"
     inkscape:zoom="0.98994949"
     inkscape:cx="749.94825"
     inkscape:cy="217.25571"
     inkscape:document-units="px"
     inkscape:current-layer="g4575"
     showgrid="false"
     fit-margin-left="0.5"
     fit-margin-bottom="0.5"
     fit-margin-top="0.5"
     fit-margin-right="0.5"
     inkscape:window-width="1920"
     inkscape:window-height="1028"
     inkscape:window-x="-8"
     inkscape:window-y="-8"
     inkscape:window-maximized="1" />
  <metadata
     id="metadata3642">
    <rdf:RDF>
      <cc:Work
         rdf:about="">
        <dc:format>image/svg+xml</dc:format>
        <dc:type
           rdf:resource="http://purl.org/dc/dcmitype/StillImage" />
        <dc:title></dc:title>
      </cc:Work>
    </rdf:RDF>
  </metadata>
  <g
     inkscape:label="Layer 1"
     inkscape:groupmode="layer"
     id="layer1"
     transform="translate(315.92184,-101.59777)">
    <g
       transform="matrix(1.25,0,0,-1.25,-1706.0178,1179.0426)"
       inkscape:label="Packet_plus_Customer_Guide_CONSIGNOR"
       id="g3653">
      <g
         id="g3659" />
      <g
         transform="translate(1578.1019,712.70586)"
         id="g3757" />
      <g
         transform="translate(1330.0678,445.96501)"
         inkscape:label="cisjaibrochure"
         id="g4344">
        <g
           transform="translate(-328.01094,-3.1242969)"
           inkscape:label="CIS_FactSheet(031813)2"
           id="g4575">
          <g
             id="g4579"
             transform="matrix(12.652496,0,0,12.652496,-1286.6687,-247.46407)">
            <g
               clip-path="url(#clipPath4583)"
               id="g4581">
              <g
                 transform="translate(124.3121,26.6193)"
                 id="g4587">
                <path
                   id="path4589"
                   style="fill:#6e615e;fill-opacity:1;fill-rule:nonzero;stroke:none"
                   d="M 0,0 0,2.141 C 0,2.26 0.057,2.32 0.168,2.32 l 0.054,0 c 0.114,0 0.171,-0.06 0.171,-0.179 L 0.393,0 c 0,-0.119 -0.057,-0.18 -0.171,-0.18 l -0.054,0 C 0.057,-0.18 0,-0.119 0,0"
                   inkscape:connector-curvature="0" />
              </g>
              <g
                 transform="translate(126.2211,26.6193)"
                 id="g4591">
                <path
                   id="path4593"
                   style="fill:#6e615e;fill-opacity:1;fill-rule:nonzero;stroke:none"
                   d="M 0,0 0,2.099 C 0,2.233 0.065,2.32 0.188,2.32 l 0.064,0 c 0.119,0 0.164,-0.049 0.237,-0.148 l 1.222,-1.733 0,1.702 c 0,0.119 0.049,0.179 0.164,0.179 l 0.045,0 c 0.107,0 0.16,-0.06 0.16,-0.179 l 0,-2.099 C 2.08,-0.096 2.012,-0.18 1.898,-0.18 l -0.031,0 c -0.119,0 -0.149,0.035 -0.21,0.119 L 0.371,1.76 0.371,0 c 0,-0.119 -0.054,-0.18 -0.169,-0.18 l -0.041,0 C 0.049,-0.18 0,-0.119 0,0"
                   inkscape:connector-curvature="0" />
              </g>
              <g
                 transform="translate(129.7796,26.6193)"
                 id="g4595">
                <path
                   id="path4597"
                   style="fill:#6e615e;fill-opacity:1;fill-rule:nonzero;stroke:none"
                   d="M 0,0 0,2.099 C 0,2.233 0.065,2.32 0.187,2.32 l 0.065,0 c 0.118,0 0.164,-0.049 0.237,-0.148 l 1.221,-1.733 0,1.702 c 0,0.119 0.05,0.179 0.164,0.179 l 0.046,0 c 0.107,0 0.16,-0.06 0.16,-0.179 l 0,-2.099 C 2.08,-0.096 2.011,-0.18 1.897,-0.18 l -0.03,0 c -0.119,0 -0.149,0.035 -0.211,0.119 L 0.37,1.76 0.37,0 c 0,-0.119 -0.054,-0.18 -0.168,-0.18 l -0.042,0 C 0.049,-0.18 0,-0.119 0,0"
                   inkscape:connector-curvature="0" />
              </g>
              <g
                 transform="translate(133.1965,26.8975)"
                 id="g4599">
                <path
                   id="path4601"
                   style="fill:#6e615e;fill-opacity:1;fill-rule:nonzero;stroke:none"
                   d="m 0,0 c 0,0.13 0.168,0.225 0.18,0.21 0.141,-0.206 0.404,-0.378 0.744,-0.378 0.343,0 0.538,0.141 0.538,0.386 0,0.279 -0.29,0.343 -0.618,0.42 -0.382,0.087 -0.779,0.221 -0.779,0.721 0,0.42 0.363,0.718 0.889,0.718 0.55,0 0.848,-0.26 0.848,-0.439 C 1.802,1.497 1.626,1.409 1.619,1.42 1.489,1.607 1.245,1.753 0.958,1.753 0.649,1.753 0.447,1.604 0.447,1.375 0.447,1.104 0.687,1.062 1.031,0.981 1.45,0.886 1.855,0.722 1.855,0.245 1.855,-0.21 1.504,-0.492 0.927,-0.492 0.332,-0.492 0,-0.202 0,0"
                   inkscape:connector-curvature="0" />
              </g>
              <g
                 transform="translate(138.7822,27.9593)"
                 id="g4603">
                <path
                   id="path4605"
                   style="fill:#6e615e;fill-opacity:1;fill-rule:nonzero;stroke:none"
                   d="M 0,0 C 0.313,0.087 0.454,0.213 0.454,0.416 0.454,0.595 0.321,0.733 0.133,0.733 -0.084,0.733 -0.199,0.584 -0.199,0.4 -0.199,0.24 -0.126,0.122 0,0 m 0.588,-0.951 -0.741,0.668 c -0.259,-0.084 -0.435,-0.233 -0.435,-0.496 0,-0.302 0.229,-0.477 0.554,-0.477 0.247,0 0.461,0.122 0.622,0.305 m -1.542,0.141 c 0,0.363 0.236,0.592 0.618,0.71 -0.122,0.134 -0.218,0.298 -0.218,0.5 0,0.344 0.279,0.615 0.691,0.615 0.374,0 0.641,-0.244 0.641,-0.58 0,-0.29 -0.205,-0.493 -0.576,-0.603 l 0.581,-0.519 c 0.083,0.148 0.137,0.312 0.187,0.5 0.045,0.16 0.114,0.214 0.217,0.214 0.115,0 0.172,-0.092 0.168,-0.108 C 1.286,-0.39 1.169,-0.668 1.012,-0.898 l 0.519,-0.465 c 0.011,-0.008 -0.042,-0.16 -0.21,-0.16 -0.065,0 -0.152,0.015 -0.249,0.114 L 0.809,-1.157 C 0.58,-1.409 0.286,-1.554 -0.062,-1.554 c -0.534,0 -0.892,0.267 -0.892,0.744"
                   inkscape:connector-curvature="0" />
              </g>
              <g
                 transform="translate(142.9741,26.8975)"
                 id="g4607">
                <path
                   id="path4609"
                   style="fill:#6e615e;fill-opacity:1;fill-rule:nonzero;stroke:none"
                   d="m 0,0 c 0,0.13 0.168,0.225 0.18,0.21 0.141,-0.206 0.404,-0.378 0.744,-0.378 0.344,0 0.538,0.141 0.538,0.386 0,0.279 -0.29,0.343 -0.618,0.42 -0.382,0.087 -0.779,0.221 -0.779,0.721 0,0.42 0.363,0.718 0.89,0.718 0.55,0 0.847,-0.26 0.847,-0.439 C 1.802,1.497 1.627,1.409 1.62,1.42 1.489,1.607 1.245,1.753 0.959,1.753 0.649,1.753 0.447,1.604 0.447,1.375 0.447,1.104 0.687,1.062 1.031,0.981 1.451,0.886 1.856,0.722 1.856,0.245 1.856,-0.21 1.505,-0.492 0.928,-0.492 0.332,-0.492 0,-0.202 0,0"
                   inkscape:connector-curvature="0" />
              </g>
              <g
                 transform="translate(146.1548,27.4587)"
                 id="g4611">
                <path
                   id="path4613"
                   style="fill:#6e615e;fill-opacity:1;fill-rule:nonzero;stroke:none"
                   d="m 0,0 0,1.301 c 0,0.119 0.062,0.18 0.168,0.18 l 0.053,0 c 0.115,0 0.172,-0.061 0.172,-0.18 l 0,-1.289 c 0,-0.47 0.206,-0.714 0.615,-0.714 0.416,0 0.614,0.236 0.614,0.717 l 0,1.286 c 0,0.123 0.058,0.18 0.169,0.18 l 0.06,0 c 0.112,0 0.165,-0.057 0.165,-0.18 l 0,-1.293 C 2.016,-0.679 1.661,-1.049 1.004,-1.049 0.347,-1.049 0,-0.687 0,0"
                   inkscape:connector-curvature="0" />
              </g>
              <g
                 transform="translate(149.6555,26.6193)"
                 id="g4615">
                <path
                   id="path4617"
                   style="fill:#6e615e;fill-opacity:1;fill-rule:nonzero;stroke:none"
                   d="M 0,0 0,2.141 C 0,2.26 0.057,2.32 0.168,2.32 l 0.054,0 c 0.114,0 0.171,-0.06 0.171,-0.179 L 0.393,0 c 0,-0.119 -0.057,-0.18 -0.171,-0.18 l -0.054,0 C 0.057,-0.18 0,-0.119 0,0"
                   inkscape:connector-curvature="0" />
              </g>
              <g
                 transform="translate(151.3779,28.7412)"
                 id="g4619">
                <path
                   id="path4621"
                   style="fill:#6e615e;fill-opacity:1;fill-rule:nonzero;stroke:none"
                   d="m 0,0 0,0.019 c 0,0.107 0.064,0.164 0.183,0.164 l 1.748,0 c 0.119,0 0.18,-0.057 0.18,-0.164 L 2.111,0 c 0,-0.107 -0.061,-0.167 -0.18,-0.167 l -0.675,0 0,-1.955 c 0,-0.119 -0.061,-0.179 -0.176,-0.179 l -0.053,0 c -0.111,0 -0.168,0.06 -0.168,0.179 l 0,1.955 -0.676,0 C 0.064,-0.167 0,-0.107 0,0"
                   inkscape:connector-curvature="0" />
              </g>
              <g
                 transform="translate(154.7828,26.6725)"
                 id="g4623">
                <path
                   id="path4625"
                   style="fill:#6e615e;fill-opacity:1;fill-rule:nonzero;stroke:none"
                   d="m 0,0 0,2.031 c 0,0.133 0.085,0.221 0.21,0.221 l 1.432,0 c 0.122,0 0.184,-0.06 0.184,-0.164 l 0,-0.023 C 1.826,1.958 1.764,1.901 1.642,1.901 l -1.248,0 0,-0.691 0.965,0 c 0.127,0 0.184,-0.053 0.184,-0.157 l 0,-0.011 C 1.543,0.935 1.482,0.878 1.359,0.878 l -0.965,0 0,-0.748 1.271,0 c 0.122,0 0.179,-0.054 0.179,-0.157 l 0,-0.019 c 0,-0.11 -0.057,-0.172 -0.179,-0.172 l -1.455,0 C 0.085,-0.218 0,-0.134 0,0"
                   inkscape:connector-curvature="0" />
              </g>
              <g
                 transform="translate(157.8375,26.8975)"
                 id="g4627">
                <path
                   id="path4629"
                   style="fill:#6e615e;fill-opacity:1;fill-rule:nonzero;stroke:none"
                   d="m 0,0 c 0,0.13 0.168,0.225 0.18,0.21 0.141,-0.206 0.404,-0.378 0.744,-0.378 0.343,0 0.538,0.141 0.538,0.386 0,0.279 -0.29,0.343 -0.618,0.42 -0.382,0.087 -0.779,0.221 -0.779,0.721 0,0.42 0.363,0.718 0.89,0.718 0.549,0 0.847,-0.26 0.847,-0.439 C 1.802,1.497 1.627,1.409 1.619,1.42 1.489,1.607 1.245,1.753 0.958,1.753 0.649,1.753 0.447,1.604 0.447,1.375 0.447,1.104 0.687,1.062 1.031,0.981 1.451,0.886 1.855,0.722 1.855,0.245 1.855,-0.21 1.504,-0.492 0.928,-0.492 0.332,-0.492 0,-0.202 0,0"
                   inkscape:connector-curvature="0" />
              </g>
              <g
                 transform="translate(123.6889,32.503)"
                 id="g4631">
                <path
                   id="path4633"
                   style="fill:#6e615e;fill-opacity:1;fill-rule:nonzero;stroke:none"
                   d="m 0,0 c -1.625,0 -2.898,1.348 -2.898,3.069 0,1.74 1.233,3.052 2.867,3.052 1.634,0 2.913,-1.355 2.913,-3.083 C 2.882,1.306 1.643,0 0,0 m 0,7.307 c -2.386,0 -4.255,-1.875 -4.255,-4.269 0,-2.379 1.855,-4.24 4.224,-4.24 2.394,0 4.27,1.876 4.27,4.271 0,2.377 -1.862,4.238 -4.239,4.238"
                   inkscape:connector-curvature="0" />
              </g>
              <g
                 transform="translate(117.0754,33.2607)"
                 id="g4635">
                <path
                   id="path4637"
                   style="fill:#6e615e;fill-opacity:1;fill-rule:nonzero;stroke:none"
                   d="m 0,0 c -0.236,0 -0.46,-0.07 -0.673,-0.211 -0.501,-0.383 -1.022,-0.547 -1.743,-0.547 -1.617,0 -2.883,1.348 -2.883,3.069 0,1.711 1.232,3.052 2.806,3.052 0.389,0 0.743,-0.07 1.083,-0.214 0.183,-0.078 0.349,-0.188 0.509,-0.294 0.064,-0.042 0.128,-0.085 0.192,-0.126 0.152,-0.095 0.32,-0.143 0.5,-0.143 0.425,0 0.8,0.269 0.943,0.384 L 0.831,5.05 0.744,5.14 c -0.625,0.656 -1.558,1.409 -3.223,1.409 -2.342,0 -4.177,-1.875 -4.177,-4.269 0,-2.378 1.835,-4.24 4.177,-4.24 1.679,0 2.638,0.819 3.286,1.532 l 0.09,0.099 -0.111,0.075 C 0.674,-0.178 0.372,0 0,0"
                   inkscape:connector-curvature="0" />
              </g>
              <g
                 transform="translate(147.9472,39.4661)"
                 id="g4639">
                <path
                   id="path4641"
                   style="fill:#6e615e;fill-opacity:1;fill-rule:nonzero;stroke:none"
                   d="m 0,0 c 0.1,-0.239 0.498,-1.02 1.409,-1.02 l 1.944,0 0,-7.028 1.259,0 0,7.028 3.055,0 0,1.181 -7.735,0 L 0,0 z"
                   inkscape:connector-curvature="0" />
              </g>
              <g
                 transform="translate(173.4214,39.7569)"
                 id="g4643">
                <path
                   id="path4645"
                   style="fill:#6e615e;fill-opacity:1;fill-rule:nonzero;stroke:none"
                   d="M 0,0 C -0.278,0.067 -1.142,0.161 -1.802,-0.796 -2.48,-1.78 -3.596,-3.409 -3.857,-3.79 c -0.21,0.319 -0.987,1.495 -1.814,2.685 -0.66,0.951 -1.378,1.093 -1.747,1.093 -0.125,0 -0.22,-0.015 -0.279,-0.028 l -0.169,-0.036 3.368,-4.912 0,-3.334 1.257,0 0,3.345 L 0.164,-0.04 0,0 z"
                   inkscape:connector-curvature="0" />
              </g>
              <g
                 transform="translate(135.6109,34.9149)"
                 id="g4647">
                <path
                   id="path4649"
                   style="fill:#6e615e;fill-opacity:1;fill-rule:nonzero;stroke:none"
                   d="m 0,0 c 0,-1.419 -0.984,-2.448 -2.339,-2.448 -1.347,0 -2.152,0.88 -2.152,2.355 l 0,3.725 c 0,0.738 -0.621,1.05 -1.202,1.095 l -0.125,0.01 0,-5.125 c 0,-2.022 1.203,-3.277 3.137,-3.277 1.579,0 2.333,0.677 2.683,1.222 0.015,-0.403 0.162,-0.698 0.438,-0.877 0.242,-0.158 0.527,-0.181 0.676,-0.181 0.031,0 0.058,10e-4 0.084,0.002 l 0.111,0.005 0,8.205 L 0,4.711 0,0 z"
                   inkscape:connector-curvature="0" />
              </g>
              <g
                 transform="translate(143.748,39.7408)"
                 id="g4651">
                <path
                   id="path4653"
                   style="fill:#6e615e;fill-opacity:1;fill-rule:nonzero;stroke:none"
                   d="m 0,0 c -1.58,0 -2.332,-0.624 -2.682,-1.17 -0.016,0.404 -0.163,0.699 -0.439,0.878 -0.242,0.157 -0.527,0.181 -0.676,0.181 -0.035,0 -0.064,-0.001 -0.086,-0.003 l -0.109,-0.007 0,-8.202 1.311,0 0,4.657 c 0,1.419 0.984,2.448 2.339,2.448 1.348,0 2.153,-0.88 2.153,-2.354 l 0,-3.653 c 0,-0.739 0.621,-1.05 1.202,-1.095 l 0.124,-0.009 0,5.052 C 3.137,-1.256 1.935,0 0,0"
                   inkscape:connector-curvature="0" />
              </g>
              <g
                 transform="translate(141.1763,44.6022)"
                 id="g4655">
                <path
                   id="path4657"
                   style="fill:#6e615e;fill-opacity:1;fill-rule:nonzero;stroke:none"
                   d="m 0,0 c -1.043,0 -1.576,0.562 -1.587,1.67 l 0,0.83 0.273,10e-4 c 1.042,0 1.571,-0.561 1.582,-1.669 l 0,-0.83 L 0,0 z"
                   inkscape:connector-curvature="0" />
              </g>
              <g
                 transform="translate(142.3116,46.9432)"
                 id="g4659">
                <path
                   id="path4661"
                   style="fill:#6e615e;fill-opacity:1;fill-rule:nonzero;stroke:none"
                   d="M 0,0 0,-1.238 C 0,-2.236 -0.717,-3.04 -1.71,-3.159 l -0.017,-0.002 c -0.345,-0.026 -0.48,-0.311 -0.515,-0.403 l -0.03,-0.077 0.314,0 c 1.359,0 2.424,1.055 2.424,2.404 L 0.466,0 0,0 z"
                   inkscape:connector-curvature="0" />
              </g>
              <g
                 transform="translate(134.0779,21.484)"
                 id="g4663">
                <path
                   id="path4665"
                   style="fill:#6e615e;fill-opacity:1;fill-rule:nonzero;stroke:none"
                   d="m 0,0 c 0.268,0 0.379,0.079 0.379,0.272 0,0.176 -0.124,0.263 -0.372,0.263 l -0.411,0 L -0.404,0 0,0 z m -0.01,0.726 c 0.196,0 0.319,0.102 0.319,0.262 0,0.165 -0.108,0.25 -0.324,0.25 l -0.389,0 0,-0.512 0.394,0 z m -0.657,-0.79 0,1.366 c 0,0.09 0.057,0.149 0.142,0.149 l 0.548,0 c 0.363,0 0.561,-0.152 0.561,-0.432 0,-0.18 -0.103,-0.301 -0.293,-0.357 0.247,-0.058 0.36,-0.214 0.36,-0.41 0,-0.312 -0.198,-0.466 -0.633,-0.466 l -0.543,0 c -0.085,0 -0.142,0.059 -0.142,0.15"
                   inkscape:connector-curvature="0" />
              </g>
              <g
                 transform="translate(135.7107,21.3809)"
                 id="g4667">
                <path
                   id="path4669"
                   style="fill:#6e615e;fill-opacity:1;fill-rule:nonzero;stroke:none"
                   d="m 0,0 0,0.571 -0.59,0.886 c -0.007,0.018 0.042,0.108 0.168,0.108 0.049,0 0.095,-0.031 0.129,-0.093 L 0.134,0.793 0.561,1.472 c 0.041,0.067 0.088,0.093 0.131,0.093 0.116,0 0.171,-0.093 0.16,-0.108 L 0.266,0.571 0.266,0 c 0,-0.08 -0.04,-0.121 -0.117,-0.121 l -0.036,0 C 0.039,-0.121 0,-0.08 0,0"
                   inkscape:connector-curvature="0" />
              </g>
              <g
                 transform="translate(138.033,22.0992)"
                 id="g4671">
                <path
                   id="path4673"
                   style="fill:#6e615e;fill-opacity:1;fill-rule:nonzero;stroke:none"
                   d="M 0,0 C 0,0.51 0.348,0.87 0.847,0.87 1.264,0.87 1.474,0.633 1.474,0.517 1.474,0.394 1.325,0.362 1.32,0.373 1.225,0.541 1.037,0.63 0.849,0.63 0.512,0.63 0.275,0.376 0.275,0.005 c 0,-0.368 0.245,-0.629 0.58,-0.629 0.223,0 0.411,0.112 0.481,0.292 0.005,0.012 0.165,-0.018 0.165,-0.142 0,-0.124 -0.219,-0.388 -0.662,-0.388 C 0.345,-0.862 0,-0.508 0,0"
                   inkscape:connector-curvature="0" />
              </g>
              <g
                 transform="translate(140.5966,21.973)"
                 id="g4675">
                <path
                   id="path4677"
                   style="fill:#6e615e;fill-opacity:1;fill-rule:nonzero;stroke:none"
                   d="M 0,0 0.535,0 0.268,0.705 0,0 z m 0.602,-0.214 -0.666,0 -0.147,-0.381 c -0.034,-0.093 -0.09,-0.121 -0.147,-0.121 -0.077,0 -0.152,0.057 -0.144,0.08 L 0.09,0.893 c 0.021,0.054 0.062,0.085 0.183,0.085 0.123,0 0.162,-0.031 0.183,-0.085 l 0.597,-1.529 c 0.008,-0.021 -0.067,-0.08 -0.147,-0.08 -0.059,0 -0.121,0.028 -0.157,0.124 l -0.147,0.378 z"
                   inkscape:connector-curvature="0" />
              </g>
              <g
                 transform="translate(142.571,22.1298)"
                 id="g4679">
                <path
                   id="path4681"
                   style="fill:#6e615e;fill-opacity:1;fill-rule:nonzero;stroke:none"
                   d="m 0,0 0.35,0 c 0.244,0 0.36,0.113 0.36,0.294 0,0.193 -0.123,0.293 -0.368,0.293 L 0,0.587 0,0 z m 0.64,-0.767 -0.455,0.559 -0.182,0 0,-0.541 c 0,-0.072 -0.039,-0.121 -0.116,-0.121 l -0.036,0 c -0.072,0 -0.111,0.049 -0.111,0.136 l 0,1.39 c 0,0.09 0.057,0.15 0.142,0.15 l 0.473,0 c 0.407,0 0.623,-0.17 0.623,-0.5 0,-0.283 -0.175,-0.463 -0.497,-0.489 L 0.968,-0.762 C 0.98,-0.777 0.924,-0.87 0.813,-0.87 c -0.069,0 -0.115,0.028 -0.173,0.103"
                   inkscape:connector-curvature="0" />
              </g>
              <g
                 transform="translate(144.2217,21.4169)"
                 id="g4683">
                <path
                   id="path4685"
                   style="fill:#6e615e;fill-opacity:1;fill-rule:nonzero;stroke:none"
                   d="M 0,0 0,1.408 C 0,1.49 0.038,1.529 0.11,1.529 l 0.039,0 c 0.077,0 0.116,-0.039 0.116,-0.121 l 0,-1.316 0.723,0 c 0.08,0 0.124,-0.038 0.124,-0.113 l 0,-0.01 c 0,-0.074 -0.044,-0.116 -0.124,-0.116 l -0.847,0 C 0.056,-0.147 0,-0.09 0,0"
                   inkscape:connector-curvature="0" />
              </g>
              <g
                 transform="translate(145.886,21.5689)"
                 id="g4687">
                <path
                   id="path4689"
                   style="fill:#6e615e;fill-opacity:1;fill-rule:nonzero;stroke:none"
                   d="m 0,0 c 0,0.087 0.113,0.152 0.121,0.141 0.095,-0.138 0.272,-0.254 0.502,-0.254 0.231,0 0.362,0.095 0.362,0.26 C 0.985,0.335 0.79,0.378 0.568,0.43 0.311,0.489 0.043,0.579 0.043,0.916 0.043,1.199 0.288,1.4 0.643,1.4 1.014,1.4 1.215,1.225 1.215,1.104 1.215,1.009 1.096,0.95 1.091,0.957 1.004,1.083 0.839,1.181 0.646,1.181 0.437,1.181 0.301,1.081 0.301,0.926 0.301,0.744 0.463,0.716 0.695,0.661 0.978,0.597 1.251,0.486 1.251,0.165 1.251,-0.142 1.014,-0.332 0.625,-0.332 0.224,-0.332 0,-0.137 0,0"
                   inkscape:connector-curvature="0" />
              </g>
              <g
                 transform="translate(149.021,22.0992)"
                 id="g4691">
                <path
                   id="path4693"
                   style="fill:#6e615e;fill-opacity:1;fill-rule:nonzero;stroke:none"
                   d="m 0,0 c 0,0.37 -0.239,0.636 -0.576,0.636 -0.337,0 -0.574,-0.258 -0.574,-0.631 0,-0.371 0.239,-0.633 0.576,-0.633 C -0.236,-0.628 0,-0.371 0,0 m -1.418,0 c 0,0.51 0.353,0.87 0.844,0.87 0.497,0 0.842,-0.356 0.842,-0.865 0,-0.51 -0.35,-0.867 -0.844,-0.867 -0.497,0 -0.842,0.354 -0.842,0.862"
                   inkscape:connector-curvature="0" />
              </g>
              <g
                 transform="translate(149.821,21.3809)"
                 id="g4695">
                <path
                   id="path4697"
                   style="fill:#6e615e;fill-opacity:1;fill-rule:nonzero;stroke:none"
                   d="m 0,0 0,1.416 c 0,0.09 0.044,0.149 0.126,0.149 l 0.044,0 c 0.08,0 0.111,-0.034 0.16,-0.101 l 0.823,-1.168 0,1.148 c 0,0.08 0.033,0.121 0.111,0.121 l 0.031,0 c 0.072,0 0.108,-0.041 0.108,-0.121 l 0,-1.415 c 0,-0.093 -0.046,-0.15 -0.124,-0.15 l -0.02,0 c -0.08,0 -0.101,0.023 -0.142,0.08 L 0.25,1.186 0.25,0 c 0,-0.08 -0.036,-0.121 -0.113,-0.121 l -0.029,0 C 0.034,-0.121 0,-0.08 0,0"
                   inkscape:connector-curvature="0" />
              </g>
              <path
                 id="path4699"
                 style="fill:#6e615e;fill-opacity:1;fill-rule:nonzero;stroke:none"
                 d="m 156.425,24.611 -28.177,0 0,0.089 28.177,0 0,-0.089 z"
                 inkscape:connector-curvature="0" />
              <g
                 transform="translate(151.7412,22.4945)"
                 id="g4701">
                <path
                   id="path4703"
                   style="fill:#6e615e;fill-opacity:1;fill-rule:nonzero;stroke:none"
                   d="m 0,0 c 0,0.028 0.036,0.049 0.039,0.045 0.03,-0.044 0.087,-0.082 0.16,-0.082 0.074,0 0.116,0.031 0.116,0.084 0,0.06 -0.063,0.073 -0.134,0.09 -0.082,0.019 -0.167,0.048 -0.167,0.155 0,0.091 0.078,0.156 0.191,0.156 0.119,0 0.183,-0.056 0.183,-0.095 C 0.388,0.323 0.35,0.304 0.349,0.306 0.321,0.346 0.268,0.378 0.206,0.378 0.14,0.378 0.096,0.345 0.096,0.296 0.096,0.238 0.148,0.228 0.222,0.211 0.313,0.19 0.4,0.155 0.4,0.052 0.4,-0.045 0.324,-0.106 0.2,-0.106 0.072,-0.106 0,-0.043 0,0"
                   inkscape:connector-curvature="0" />
              </g>
              <g
                 transform="translate(152.3096,22.4343)"
                 id="g4705">
                <path
                   id="path4707"
                   style="fill:#6e615e;fill-opacity:1;fill-rule:nonzero;stroke:none"
                   d="M 0,0 0,0.453 C 0,0.482 0.019,0.5 0.048,0.5 l 0.023,0 C 0.104,0.5 0.113,0.488 0.126,0.457 L 0.252,0.174 0.379,0.457 C 0.392,0.488 0.401,0.5 0.433,0.5 l 0.02,0 c 0.031,0 0.05,-0.018 0.05,-0.047 L 0.503,0 c 0,-0.026 -0.01,-0.039 -0.035,-0.039 l -0.011,0 C 0.433,-0.039 0.423,-0.026 0.423,0 l 0,0.391 L 0.305,0.126 C 0.296,0.104 0.287,0.09 0.251,0.09 0.214,0.09 0.207,0.104 0.197,0.126 L 0.081,0.388 0.081,0 c 0,-0.026 -0.01,-0.039 -0.035,-0.039 l -0.013,0 C 0.01,-0.039 0,-0.026 0,0"
                   inkscape:connector-curvature="0" />
              </g>
              <g
                 transform="translate(144.5842,52.6477)"
                 id="g4709">
                <path
                   id="path4711"
                   style="fill:#6e615e;fill-opacity:1;fill-rule:nonzero;stroke:none"
                   d="m 0,0 c -0.157,0 -0.325,0.005 -0.501,0.005 -0.54,0 -1.318,-0.028 -2,-0.255 0.431,-0.432 0.694,-1.03 0.694,-1.7 l 0,-3.36 c 1.11,0.117 1.974,1.243 1.974,2.384 l 0.001,0 0,2.923 C 0.131,-0.003 0.038,0 0,0"
                   inkscape:connector-curvature="0" />
              </g>
              <g
                 transform="translate(141.2419,52.4394)"
                 id="g4713">
                <path
                   id="path4715"
                   style="fill:#6e615e;fill-opacity:1;fill-rule:nonzero;stroke:none"
                   d="m 0,0 c -0.252,0.128 -0.535,0.203 -0.836,0.207 -0.002,0 -0.03,0.001 -0.073,0.001 l 0,-1.169 C -0.679,-0.583 -0.368,-0.255 0,0"
                   inkscape:connector-curvature="0" />
              </g>
              <g
                 transform="translate(142.1817,51.3999)"
                 id="g4717">
                <path
                   id="path4719"
                   style="fill:#6e615e;fill-opacity:1;fill-rule:nonzero;stroke:none"
                   d="m 0,0 0.001,0 c -0.115,0.302 -0.304,0.565 -0.546,0.77 -0.774,-0.466 -1.29,-1.288 -1.303,-2.225 l -10e-4,0 0,-0.429 0,0 c 0.01,-1.134 0.873,-2.064 1.979,-2.179 l 0,3.357 C 0.13,-0.455 0.084,-0.218 0,0"
                   inkscape:connector-curvature="0" />
              </g>
              <g
                 transform="translate(165.1672,32.5309)"
                 id="g4721">
                <path
                   id="path4723"
                   style="fill:#6e615e;fill-opacity:1;fill-rule:nonzero;stroke:none"
                   d="m 0,0 c -0.081,-0.038 -0.51,-0.232 -0.886,-0.232 -1.006,0 -1.492,0.836 -2.097,1.707 -0.085,0.123 -0.169,0.244 -0.254,0.364 -0.085,0.118 -0.174,0.24 -0.265,0.365 l 0.036,0 c 1.111,0.03 1.449,0.374 1.776,0.706 l 0.042,0.043 c 0.429,0.433 0.655,1.014 0.654,1.681 0.001,0.739 -0.296,1.392 -0.835,1.838 -0.538,0.446 -1.291,0.682 -2.177,0.682 l -3.549,0 0,-8.281 1.247,0 -0.001,7.102 2.238,0 c 0.577,0 1.048,-0.13 1.361,-0.375 C -2.408,5.363 -2.254,5.027 -2.252,4.601 -2.253,4.163 -2.421,3.809 -2.749,3.552 -3.076,3.296 -3.537,3.16 -4.084,3.16 l -1.076,0 c 0,0 -0.213,-0.003 -0.222,-0.003 -0.02,0 -0.051,-0.002 -0.051,-0.002 C -5.529,3.141 -5.6,3.082 -5.623,2.997 -5.644,2.916 -5.618,2.827 -5.558,2.78 c 0.545,-0.425 0.976,-1.027 1.393,-1.607 0.111,-0.155 0.22,-0.316 0.33,-0.479 0.625,-0.924 1.268,-1.942 2.487,-1.942 l 0.026,0 C -0.608,-1.241 -0.029,-0.69 0,0"
                   inkscape:connector-curvature="0" />
              </g>
            </g>
          </g>
        </g>
      </g>
    </g>
  </g>
</svg>
